<svg width="16" height="16" viewBox="0 0 16 16" fill="none" xmlns="http://www.w3.org/2000/svg">
<g clip-path="url(#clip0_211_303)">
<path d="M8.84699 5.89719L8.00242 4.5332L7.15784 5.89719L2.78271 12.9604L4.00361 13.7171L8.00242 7.26117L12.0012 13.7171L13.2221 12.9604L8.84699 5.89719Z" fill="url(#paint0_linear_211_303)"/>
<path d="M8.00244 7.26172L11.7666 10.6113L13.2221 12.961L12.0012 13.7177L8.00244 7.26172Z" fill="url(#paint1_linear_211_303)"/>
<path fill-rule="evenodd" clip-rule="evenodd" d="M8.00249 1.43678C4.37881 1.43678 1.44123 4.37523 1.44123 8C1.44123 11.6248 4.37881 14.5632 8.00249 14.5632C11.6262 14.5632 14.5637 11.6248 14.5637 8C14.5637 4.37523 11.6262 1.43678 8.00249 1.43678ZM0.00488281 8C0.00488281 3.58172 3.58553 0 8.00249 0C12.4194 0 16.0001 3.58172 16.0001 8C16.0001 12.4183 12.4194 16 8.00249 16C3.58553 16 0.00488281 12.4183 0.00488281 8Z" fill="url(#paint2_linear_211_303)"/>
<path d="M0.382069 9.09305C0.860852 10.1467 1.49859 10.8268 1.98216 11.3402C2.34881 11.7294 2.74586 12.0888 3.16955 12.4149C2.30217 11.4725 1.73031 10.2962 1.52487 9.03183C1.31942 7.76744 1.48941 6.47054 2.01376 5.30187C2.7214 3.46758 4.08115 2.35359 4.67772 1.86509C6.57274 0.314319 7.29762 0.128496 7.56095 0.0279213C7.5983 0.0125956 7.39625 0.00110185 7.03525 0.0403739C6.96056 0.0499524 6.88587 0.0576141 6.81309 0.0691084L6.7518 0.0786846C6.6436 0.0949681 6.53635 0.115087 6.43006 0.136159L6.3592 0.150524C6.26345 0.170639 6.16769 0.192669 6.07193 0.215657L5.94841 0.247268C5.86414 0.269299 5.78179 0.293244 5.69848 0.318148L5.55772 0.362212C5.46196 0.391905 5.36621 0.423514 5.27524 0.457997L5.21779 0.479067C3.68854 1.048 2.36945 2.0705 1.43699 3.40978C0.50453 4.74907 0.00317878 6.34125 0 7.97333C0.0153211 8.05474 0.0325571 8.13425 0.0536236 8.21183C0.144407 8.51221 0.254107 8.80654 0.382069 9.09305Z" fill="url(#paint3_linear_211_303)"/>
<path d="M14.1812 12.6051C14.593 11.5208 14.6179 10.5888 14.6389 9.8838C14.6543 9.34928 14.6271 8.81438 14.5575 8.28418C14.504 9.5637 14.0763 10.7994 13.3273 11.838C12.5784 12.8767 11.5412 13.6726 10.3442 14.1271C8.54592 14.924 6.80123 14.7497 6.03518 14.6731C3.59913 14.4298 2.95564 14.0485 2.69805 13.9336C2.66071 13.9173 2.79381 14.0687 3.08108 14.2966C3.14045 14.3426 3.19887 14.3924 3.25919 14.4336L3.30898 14.47C3.39708 14.5342 3.48613 14.5964 3.5771 14.6568L3.63743 14.697C3.71786 14.7497 3.80021 14.8005 3.88256 14.8503L3.99269 14.9154C4.06738 14.9595 4.14302 15.0007 4.21963 15.0418L4.34986 15.1108C4.43795 15.1558 4.52701 15.2009 4.61702 15.243L4.67256 15.2679C6.15627 15.9474 7.81204 16.1575 9.41836 15.8701C11.0247 15.5827 12.505 14.8115 13.6612 13.6597C13.7072 13.5917 13.7513 13.5227 13.7905 13.4528C13.9386 13.1788 14.0691 12.8956 14.1812 12.6051Z" fill="url(#paint4_linear_211_303)"/>
</g>
<defs>
<linearGradient id="paint0_linear_211_303" x1="2.78271" y1="9.12516" x2="42.4871" y2="-0.840473" gradientUnits="userSpaceOnUse">
<stop stop-color="#162345"/>
<stop offset="1" stop-color="#0E4C99"/>
<stop offset="1"/>
</linearGradient>
<linearGradient id="paint1_linear_211_303" x1="-8.61231" y1="10.4897" x2="-8.57593" y2="10.4897" gradientUnits="userSpaceOnUse">
<stop stop-color="#3B5CAA"/>
<stop offset="1" stop-color="#0E4C99"/>
</linearGradient>
<linearGradient id="paint2_linear_211_303" x1="0.00487548" y1="7.99999" x2="16.0001" y2="7.99999" gradientUnits="userSpaceOnUse">
<stop stop-color="#3B5CAA"/>
<stop offset="1" stop-color="#0E4C99"/>
</linearGradient>
<linearGradient id="paint3_linear_211_303" x1="4.14052" y1="1.59784" x2="0.691481" y2="10.5052" gradientUnits="userSpaceOnUse">
<stop stop-color="#1E4E97"/>
<stop offset="1" stop-color="#1C2652"/>
</linearGradient>
<linearGradient id="paint4_linear_211_303" x1="19.2975" y1="8.33016" x2="8.66532" y2="15.9923" gradientUnits="userSpaceOnUse">
<stop stop-color="#0AF0CF"/>
<stop offset="1" stop-color="#3ABCED"/>
</linearGradient>
<clipPath id="clip0_211_303">
<rect width="16" height="16" fill="white"/>
</clipPath>
</defs>
</svg>
