<svg width="380" height="70" viewBox="0 0 380 70" fill="none" xmlns="http://www.w3.org/2000/svg">
<path d="M36.8462 24.9797L33.4031 19.4209L29.9601 24.9797L12.1241 53.7655L17.1013 56.8494L33.4031 30.5386L49.7049 56.8494L54.6821 53.7655L36.8462 24.9797Z" fill="url(#paint0_linear_28_2071)"/>
<path d="M33.4037 30.5381L48.7491 44.1893L54.6827 53.765L49.7055 56.8489L33.4037 30.5381Z" fill="url(#paint1_linear_28_2071)"/>
<path d="M33.4035 63.2227C49.793 63.2227 63.0793 49.9364 63.0793 33.5469C63.0793 17.1574 49.793 3.87109 33.4035 3.87109C17.014 3.87109 3.72766 17.1574 3.72766 33.5469C3.72766 49.9364 17.014 63.2227 33.4035 63.2227Z" stroke="url(#paint2_linear_28_2071)" stroke-width="5.85553" stroke-miterlimit="10"/>
<path d="M2.33808 38.0025C4.28993 42.2966 6.88977 45.0682 8.86113 47.1606C10.3558 48.7467 11.9745 50.2114 13.7017 51.5405C10.1657 47.6999 7.83444 42.906 6.99689 37.753C6.15935 32.6001 6.85234 27.3146 8.98996 22.5518C11.8748 15.0762 17.418 10.5362 19.85 8.54534C27.5754 2.22527 30.5305 1.46796 31.604 1.05807C31.7562 0.995614 30.9326 0.948772 29.4609 1.10882C29.1564 1.14786 28.8519 1.17908 28.5552 1.22593L28.3054 1.26496C27.8643 1.33132 27.4271 1.41331 26.9938 1.49919L26.7049 1.55773C26.3145 1.63971 25.9241 1.72949 25.5338 1.82318L25.0302 1.95201C24.6867 2.04179 24.351 2.13938 24.0113 2.24088L23.4375 2.42046C23.0471 2.54147 22.6568 2.67029 22.2859 2.81082L22.0517 2.89669C15.8175 5.21534 10.44 9.38251 6.63864 14.8407C2.83732 20.2988 0.793476 26.7877 0.780518 33.4392C0.842977 33.771 0.913242 34.095 0.999123 34.4112C1.36922 35.6354 1.81643 36.8349 2.33808 38.0025Z" fill="url(#paint3_linear_28_2071)"/>
<path d="M58.5925 52.3175C60.271 47.8986 60.3725 44.1003 60.4584 41.2272C60.5212 39.0488 60.4102 36.8688 60.1266 34.708C59.9085 39.9226 58.1648 44.9586 55.1115 49.1915C52.0583 53.4244 47.8298 56.6681 42.9504 58.5205C35.6193 61.7684 28.5068 61.0579 25.3838 60.7456C15.4528 59.7541 12.8295 58.2004 11.7794 57.7319C11.6272 57.6656 12.1698 58.2824 13.3409 59.2115C13.5829 59.3988 13.8211 59.6018 14.067 59.7697L14.27 59.918C14.6291 60.1796 14.9922 60.4333 15.363 60.6792L15.609 60.8432C15.9369 61.0579 16.2726 61.2648 16.6083 61.4678L17.0572 61.7332C17.3617 61.9128 17.6701 62.0806 17.9824 62.2485L18.5133 62.5296C18.8724 62.7131 19.2355 62.8965 19.6024 63.0683L19.8288 63.1698C25.8775 65.939 32.6275 66.7952 39.1759 65.6239C45.7244 64.4526 51.759 61.3097 56.4727 56.6155C56.6601 56.3383 56.8397 56.0573 56.9998 55.7723C57.6035 54.6557 58.1355 53.5018 58.5925 52.3175Z" fill="url(#paint4_linear_28_2071)"/>
<path d="M337.64 40.481L331.942 57.7337H321.97L338.221 12.1484H349.037L365.129 57.7337H354.577L349.301 40.481M349.301 40.481L343.55 22.595L337.64 40.481" fill="#4086DD"/>
<path d="M379.638 57.7337H370.141V12.1484H379.638V57.7337Z" fill="#4086DD"/>
<path d="M122.526 14.2357C125.519 16.8771 127.404 20.552 127.802 24.5241H121.84C121.299 21.8423 119.89 19.4132 117.83 17.6124C115.443 15.7565 112.459 14.8371 109.441 15.0272C107.444 14.9774 105.461 15.3728 103.636 16.1851C101.811 16.9973 100.189 18.2058 98.8892 19.7228C95.8733 23.9121 94.4344 29.0322 94.8266 34.1793C94.6041 38.7933 95.9016 43.353 98.5199 47.1586C99.7854 48.8271 101.446 50.1541 103.353 51.02C105.26 51.8858 107.352 52.2633 109.441 52.1181C111.445 52.2077 113.436 51.767 115.215 50.8406C116.994 49.9142 118.496 48.535 119.571 46.842C120.968 44.6393 121.919 42.1831 122.368 39.6136H128.172C127.737 44.0826 125.889 48.2968 122.895 51.6433C121.058 53.5996 118.82 55.1357 116.334 56.1465C113.848 57.1573 111.173 57.6189 108.492 57.4996C103.648 57.6157 98.9376 55.9013 95.3015 52.6984C92.817 50.1175 90.9108 47.0368 89.7099 43.6617C88.509 40.2865 88.041 36.6943 88.337 33.1242C88.1027 27.1708 89.9704 21.3247 93.6131 16.61C95.5231 14.2923 97.9501 12.455 100.699 11.2455C103.448 10.036 106.442 9.4879 109.441 9.6455C111.817 9.50995 114.197 9.84585 116.442 10.6336C118.688 11.4214 120.755 12.6455 122.526 14.2357Z" fill="#162345"/>
<path d="M153.128 35.9539C153.662 35.9481 154.184 35.798 154.639 35.5193C155.095 35.2406 155.466 34.8437 155.714 34.3709C156 33.6875 156.127 32.9475 156.083 32.2077C156.137 31.399 155.981 30.5902 155.629 29.8598C155.278 29.1294 154.744 28.5024 154.078 28.0397C152.296 27.0947 150.288 26.6566 148.274 26.7734C147.131 26.658 145.977 26.8128 144.905 27.2252C143.833 27.6376 142.872 28.2961 142.101 29.1477C141.322 30.2888 140.866 31.6199 140.782 32.9993H135.506C135.38 31.3627 135.678 29.7212 136.371 28.2333C137.064 26.7454 138.129 25.4611 139.463 24.5047C142.098 22.8469 145.163 22.0028 148.274 22.0777C151.583 21.9335 154.868 22.6998 157.771 24.2936C158.951 25.0038 159.914 26.0232 160.556 27.2416C161.197 28.4599 161.493 29.8307 161.412 31.2053V50.3048C161.386 50.7828 161.495 51.2584 161.728 51.6765C161.992 52.0458 162.467 52.2041 163.258 52.2041H164.103H165.052V56.3195L163.1 56.7417C162.486 56.8041 161.867 56.8041 161.254 56.7417C160.443 56.8063 159.631 56.6547 158.898 56.3024C158.166 55.9502 157.54 55.41 157.085 54.7367C156.548 53.795 156.207 52.7538 156.083 51.6765C154.77 53.3034 153.112 54.6189 151.229 55.5281C149.047 56.6055 146.645 57.1652 144.212 57.1637C141.426 57.2646 138.714 56.2594 136.667 54.3674C135.716 53.4682 134.966 52.3783 134.466 51.169C133.966 49.9597 133.727 48.6583 133.765 47.3502C133.687 46.0266 133.902 44.702 134.395 43.4709C134.887 42.2398 135.645 41.1324 136.614 40.2275C138.752 38.4426 141.385 37.3561 144.159 37.1146L153.128 35.9539ZM141.415 50.9906C142.615 51.8955 144.081 52.3779 145.584 52.3624C147.567 52.3798 149.524 51.9086 151.282 50.9906C152.712 50.3886 153.924 49.3632 154.754 48.0521C155.584 46.741 155.992 45.2072 155.925 43.6569V39.1722C155.108 39.6635 154.217 40.0199 153.287 40.2275C152.271 40.5344 151.229 40.7463 150.174 40.8606L146.797 41.2826C145.219 41.4184 143.68 41.848 142.26 42.549C141.433 42.9979 140.75 43.6729 140.293 44.495C139.835 45.3171 139.62 46.2524 139.674 47.1918C139.647 47.917 139.791 48.6385 140.093 49.2982C140.396 49.9579 140.848 50.5375 141.415 50.9906Z" fill="#162345"/>
<path d="M170.749 10.5723H176.342V55.9993H170.749V10.5723Z" fill="#162345"/>
<path d="M184.836 10.5723H190.112V55.9993H184.836V10.5723Z" fill="#162345"/>
<path d="M198.765 10.5723H204.41V16.9035H198.765V10.5723ZM198.765 23.0238H204.41V55.9993H198.765V23.0238Z" fill="#162345"/>
<path d="M236.806 26.1908C238.346 27.8686 239.529 29.8426 240.282 31.9924C241.035 34.1422 241.342 36.4227 241.185 38.6951C241.388 43.4123 240.035 48.0656 237.333 51.9381C235.914 53.7356 234.074 55.1568 231.977 56.0768C229.879 56.9968 227.588 57.3873 225.304 57.2142C223.316 57.266 221.342 56.8819 219.519 56.0889C217.696 55.2958 216.068 54.1133 214.751 52.624C211.949 49.0972 210.524 44.6718 210.742 40.1724C210.496 35.3922 211.996 30.6856 214.963 26.9293C216.343 25.2975 218.077 24.0026 220.034 23.1431C221.991 22.2836 224.118 21.8822 226.253 21.9698C228.203 21.9447 230.139 22.3048 231.95 23.0291C233.761 23.7534 235.411 24.8278 236.806 26.1908ZM233.323 48.192C234.715 45.2775 235.419 42.0827 235.381 38.8533C235.493 36.2739 234.986 33.7051 233.904 31.3612C233.18 29.8814 232.029 28.6529 230.599 27.8346C229.169 27.0162 227.527 26.6457 225.884 26.7711C224.421 26.6842 222.962 27.0027 221.668 27.6916C220.374 28.3804 219.295 29.413 218.55 30.6755C216.957 33.5425 216.173 36.7887 216.282 40.0669C216.17 43.1449 216.958 46.1887 218.55 48.8252C219.341 50.0072 220.433 50.9574 221.712 51.5786C222.992 52.1997 224.413 52.4695 225.831 52.3601C227.356 52.5154 228.893 52.199 230.232 51.4536C231.572 50.7083 232.651 49.5698 233.323 48.192Z" fill="#162345"/>
<path d="M247.57 23.025H252.846V27.4041C253.84 26.034 255.074 24.8546 256.486 23.922C258.476 22.6734 260.786 22.0316 263.134 22.0753C264.953 22.0546 266.755 22.431 268.413 23.1783C270.072 23.9255 271.547 25.0256 272.737 26.4018C275.536 29.8639 276.929 34.2523 276.641 38.695C276.929 41.5353 276.565 44.4038 275.577 47.0825C274.59 49.7612 273.005 52.1796 270.943 54.1539C268.605 56.1004 265.649 57.1482 262.607 57.1085C260.384 57.1725 258.189 56.6054 256.275 55.4729C254.999 54.5891 253.876 53.502 252.951 52.2546V69.0325H247.412L247.57 23.025ZM268.674 48.9834C270.578 46.0993 271.486 42.6712 271.259 39.2226C271.324 36.8997 270.929 34.5868 270.099 32.4164C269.527 30.7889 268.44 29.3928 267.001 28.4404C265.563 27.4879 263.853 27.0314 262.132 27.1403C260.357 27.0637 258.608 27.5905 257.171 28.6349C255.734 29.6792 254.693 31.1795 254.218 32.8912C253.362 35.4209 252.969 38.0839 253.057 40.7527C252.991 42.9901 253.386 45.2171 254.218 47.295C254.794 48.9086 255.875 50.2933 257.301 51.2437C258.727 52.1941 260.421 52.6596 262.132 52.5711C263.403 52.5187 264.645 52.1662 265.754 51.5427C266.864 50.9192 267.81 50.0423 268.516 48.9834H268.674Z" fill="#162345"/>
<path d="M303.706 23.7623C305.731 24.7344 307.461 26.2274 308.719 28.0886C309.851 29.8442 310.589 31.8242 310.882 33.8923C311.316 36.3114 311.493 38.7698 311.409 41.2262H287.298C287.248 44.096 288.077 46.9125 289.672 49.2986C290.469 50.3404 291.514 51.1662 292.712 51.7007C293.91 52.2352 295.223 52.4613 296.531 52.3586C297.825 52.4129 299.116 52.1811 300.311 51.6795C301.505 51.1779 302.575 50.419 303.443 49.4569C304.406 48.3495 305.093 47.0295 305.447 45.6052H310.724C310.495 47.0335 310.012 48.4093 309.299 49.6678C308.565 51.0073 307.641 52.2335 306.555 53.3083C304.845 55.0055 302.685 56.1774 300.33 56.6851C298.858 57.0161 297.353 57.1754 295.845 57.1599C293.868 57.2109 291.902 56.8369 290.082 56.0632C288.262 55.2896 286.628 54.1341 285.293 52.6752C282.274 49.1925 280.74 44.6658 281.019 40.0654C280.799 35.3518 282.341 30.7249 285.346 27.0861C286.73 25.4734 288.458 24.1911 290.403 23.3329C292.347 22.4747 294.459 22.0625 296.584 22.1266C299.053 22.1087 301.492 22.669 303.706 23.7623ZM305.658 36.7943C305.545 34.7763 305.025 32.8021 304.128 30.9905C303.363 29.679 302.246 28.6082 300.903 27.8994C299.56 27.1907 298.045 26.8724 296.531 26.9807C295.329 26.9654 294.138 27.207 293.037 27.6893C291.936 28.1715 290.95 28.8833 290.147 29.777C288.419 31.7066 287.461 34.2042 287.456 36.7943H305.658Z" fill="#162345"/>
<defs>
<linearGradient id="paint0_linear_28_2071" x1="12.1241" y1="38.1352" x2="173.98" y2="-2.50213" gradientUnits="userSpaceOnUse">
<stop stop-color="#162345"/>
<stop offset="1" stop-color="#0E4C99"/>
<stop offset="1"/>
</linearGradient>
<linearGradient id="paint1_linear_28_2071" x1="-34.3292" y1="43.6935" x2="-34.1808" y2="43.6935" gradientUnits="userSpaceOnUse">
<stop stop-color="#3B5CAA"/>
<stop offset="1" stop-color="#0E4C99"/>
</linearGradient>
<linearGradient id="paint2_linear_28_2071" x1="0.799897" y1="33.5469" x2="66.0071" y2="33.5469" gradientUnits="userSpaceOnUse">
<stop stop-color="#3B5CAA"/>
<stop offset="1" stop-color="#0E4C99"/>
</linearGradient>
<linearGradient id="paint3_linear_28_2071" x1="17.66" y1="7.45619" x2="3.60678" y2="43.7605" gradientUnits="userSpaceOnUse">
<stop stop-color="#1E4E97"/>
<stop offset="1" stop-color="#1C2652"/>
</linearGradient>
<linearGradient id="paint4_linear_28_2071" x1="79.4498" y1="34.8954" x2="36.1149" y2="66.1342" gradientUnits="userSpaceOnUse">
<stop stop-color="#0AF0CF"/>
<stop offset="1" stop-color="#3ABCED"/>
</linearGradient>
</defs>
</svg>
